HIERARCHY
ROOT hip
{
  OFFSET 0 0 0
  CHANNELS 6 Xposition Yposition Zposition Zrotation Yrotation Xrotation
  JOINT abdomen
  {
    OFFSET 0 20.6881 -0.73152
    CHANNELS 3 Zrotation Xrotation Yrotation
    JOINT chest
    {
      OFFSET 0 11.7043 -0.48768
      CHANNELS 3 Zrotation Xrotation Yrotation
      JOINT neck
      {
        OFFSET 0 22.1894 -2.19456
        CHANNELS 3 Zrotation Xrotation Yrotation
        JOINT head
        {
          OFFSET -0.24384 7.07133 1.2192
          CHANNELS 3 Zrotation Xrotation Yrotation
          JOINT leftEye
          {
            OFFSET 4.14528 8.04674 8.04672
            CHANNELS 3 Zrotation Xrotation Yrotation
            End Site
            {
              OFFSET 1 0 0
            }
          }
          JOINT rightEye
          {
            OFFSET -3.6576 8.04674 8.04672
            CHANNELS 3 Zrotation Xrotation Yrotation
            End Site
            {
              OFFSET 1 0 0
            }
          }
        }
      }
      JOINT rCollar
      {
        OFFSET -2.68224 19.2634 -4.8768
        CHANNELS 3 Zrotation Xrotation Yrotation
        JOINT rShldr
        {
          OFFSET -8.77824 -1.95073 1.46304
          CHANNELS 3 Zrotation Xrotation Yrotation
          JOINT rForeArm
          {
            OFFSET -28.1742 -1.7115 0.48768
            CHANNELS 3 Zrotation Xrotation Yrotation
            JOINT rHand
            {
              OFFSET -22.5879 0.773209 7.07136
              CHANNELS 3 Zrotation Xrotation Yrotation
              JOINT rThumb1
              {
                OFFSET -1.2192 -0.487915 3.41376
                CHANNELS 3 Zrotation Xrotation Yrotation
                JOINT rThumb2
                {
                  OFFSET -3.37035 -0.52449 3.41376
                  CHANNELS 3 Zrotation Xrotation Yrotation
                  End Site
                  {
                    OFFSET -1.78271 -1.18214 1.43049
                  }
                }
              }
              JOINT rIndex1
              {
                OFFSET -7.75947 0.938293 5.60832
                CHANNELS 3 Zrotation Xrotation Yrotation
                JOINT rIndex2
                {
                  OFFSET -2.54057 -0.884171 1.56538
                  CHANNELS 3 Zrotation Xrotation Yrotation
                  End Site
                  {
                    OFFSET -1.62519 -0.234802 1.16502
                  }
                }
              }
              JOINT rMid1
              {
                OFFSET -8.24714 1.18213 3.41376
                CHANNELS 3 Zrotation Xrotation Yrotation
                JOINT rMid2
                {
                  OFFSET -3.10165 -0.590103 1.0647
                  CHANNELS 3 Zrotation Xrotation Yrotation
                  End Site
                  {
                    OFFSET -2.48547 -0.328903 0.83742
                  }
                }
              }
              JOINT rRing1
              {
                OFFSET -8.82822 0.546677 1.51678
                CHANNELS 3 Zrotation Xrotation Yrotation
                JOINT rRing2
                {
                  OFFSET -2.60934 -0.819778 -0.0198488
                  CHANNELS 3 Zrotation Xrotation Yrotation
                  End Site
                  {
                    OFFSET -2.33842 -0.294052 0.168128
                  }
                }
              }
              JOINT rPinky1
              {
                OFFSET -8.27202 -0.0477905 -0.4584
                CHANNELS 3 Zrotation Xrotation Yrotation
                JOINT rPinky2
                {
                  OFFSET -1.82734 -0.647385 -0.700984
                  CHANNELS 3 Zrotation Xrotation Yrotation
                  End Site
                  {
                    OFFSET -1.69225 -0.51767 -0.607171
                  }
                }
              }
            }
          }
        }
      }
      JOINT lCollar
      {
        OFFSET 2.68224 19.2634 -4.8768
        CHANNELS 3 Zrotation Xrotation Yrotation
        JOINT lShldr
        {
          OFFSET 8.77824 -1.95073 1.46304
          CHANNELS 3 Zrotation Xrotation Yrotation
          JOINT lForeArm
          {
            OFFSET 28.1742 -1.7115 0.48768
            CHANNELS 3 Zrotation Xrotation Yrotation
            JOINT lHand
            {
              OFFSET 22.5879 0.773209 7.07136
              CHANNELS 3 Zrotation Xrotation Yrotation
              JOINT lThumb1
              {
                OFFSET 1.2192 -0.487915 3.41376
                CHANNELS 3 Zrotation Xrotation Yrotation
                JOINT lThumb2
                {
                  OFFSET 3.37035 -0.52449 3.41376
                  CHANNELS 3 Zrotation Xrotation Yrotation
                  End Site
                  {
                    OFFSET 1.78271 -1.18214 1.43049
                  }
                }
              }
              JOINT lIndex1
              {
                OFFSET 7.75947 0.938293 5.60832
                CHANNELS 3 Zrotation Xrotation Yrotation
                JOINT lIndex2
                {
                  OFFSET 2.54057 -0.884171 1.56538
                  CHANNELS 3 Zrotation Xrotation Yrotation
                  End Site
                  {
                    OFFSET 1.62519 -0.234802 1.16502
                  }
                }
              }
              JOINT lMid1
              {
                OFFSET 8.24714 1.18213 3.41376
                CHANNELS 3 Zrotation Xrotation Yrotation
                JOINT lMid2
                {
                  OFFSET 3.10165 -0.590103 1.0647
                  CHANNELS 3 Zrotation Xrotation Yrotation
                  End Site
                  {
                    OFFSET 2.48547 -0.328903 0.83742
                  }
                }
              }
              JOINT lRing1
              {
                OFFSET 8.82822 0.546677 1.51678
                CHANNELS 3 Zrotation Xrotation Yrotation
                JOINT lRing2
                {
                  OFFSET 2.60934 -0.819778 -0.0198488
                  CHANNELS 3 Zrotation Xrotation Yrotation
                  End Site
                  {
                    OFFSET 2.33842 -0.294052 0.168128
                  }
                }
              }
              JOINT lPinky1
              {
                OFFSET 8.27202 -0.0477905 -0.4584
                CHANNELS 3 Zrotation Xrotation Yrotation
                JOINT lPinky2
                {
                  OFFSET 1.82734 -0.647385 -0.700984
                  CHANNELS 3 Zrotation Xrotation Yrotation
                  End Site
                  {
                    OFFSET 1.69225 -0.51767 -0.607171
                  }
                }
              }
            }
          }
        }
      }
    }
  }
  JOINT rButtock
  {
    OFFSET -8.77824 4.35084 1.2192
    CHANNELS 3 Zrotation Xrotation Yrotation
    JOINT rThigh
    {
      OFFSET 0 -1.70687 -2.19456
      CHANNELS 3 Zrotation Xrotation Yrotation
      JOINT rShin
      {
        OFFSET 0 -36.8199 0.73152
        CHANNELS 3 Zrotation Xrotation Yrotation
        JOINT rFoot
        {
          OFFSET 0.73152 -45.1104 -5.12064
          CHANNELS 3 Zrotation Xrotation Yrotation
          End Site
          {
            OFFSET -1.1221 -3.69964 12.103
          }
        }
      }
    }
  }
  JOINT lButtock
  {
    OFFSET 8.77824 4.35084 1.2192
    CHANNELS 3 Zrotation Xrotation Yrotation
    JOINT lThigh
    {
      OFFSET 0 -1.70687 -2.19456
      CHANNELS 3 Zrotation Xrotation Yrotation
      JOINT lShin
      {
        OFFSET 0 -36.8199 0.73152
        CHANNELS 3 Zrotation Xrotation Yrotation
        JOINT lFoot
        {
          OFFSET -0.73152 -45.1104 -5.12064
          CHANNELS 3 Zrotation Xrotation Yrotation
          End Site
          {
            OFFSET 1.1221 -3.69964 12.103
          }
        }
      }
    }
  }
}
MOTION
Frames:	5
Frame Time:	0.00833333
5.29651 83.5688 8.17775 0.0 0.0 0.0 -2.45637 6.5914e-06 -0.06642 -0.677102 0.0109129 -0.117187 1.67102e-14 2.38542e-15 -3.23025e-16 4.91231e-14 1.59028e-14 -8.9919e-16 -0.0 0.0 0.0 -0.0 0.0 0.0 8.24873e-15 3.90193e-17 -9.93923e-17 1.72551e-13 9.62863e-16 -1.39149e-15 2.9531e-12 -8.52985e-13 -1.145e-13 3.38143e-11 1.04789e-12 -5.43875e-13 7.97636e-11 4.20236e-13 -1.44397e-12 1.37739e-10 7.28347e-13 -2.49992e-12 7.97683e-11 4.23411e-13 -1.45987e-12 7.73091 5.47488 0.417314 7.97629e-11 4.20131e-13 -1.44715e-12 2.90554 0.965183 0.102902 7.97658e-11 4.20032e-13 -1.44397e-12 10.2786 0.731801 0.0259123 7.97582e-11 4.22219e-13 -1.44079e-12 2.22167 -0.733487 -0.20892 8.05217e-15 3.45544e-17 -1.98785e-16 1.71049e-13 8.69683e-16 -3.37934e-15 2.95638e-12 9.14409e-13 -6.67917e-14 3.38504e-11 -7.12047e-13 -5.94764e-13 7.98433e-11 4.3919e-13 -1.44715e-12 1.37898e-10 7.56972e-13 -2.49276e-12 7.98387e-11 4.40109e-13 -1.44079e-12 -7.73091 5.47488 -0.417314 7.98443e-11 4.39215e-13 -1.44397e-12 -2.90554 0.965183 -0.102902 7.98357e-11 4.39115e-13 -1.44238e-12 -10.2786 0.731801 -0.0259123 7.9847e-11 4.42097e-13 -1.44397e-12 -2.22167 -0.733487 0.20892 -2.03217e-16 0.0 -3.88251e-19 -1.38432 -1.93007 0.00584986 -0.00880838 -2.07862 -0.0724822 -0.480417 3.99895 0.135652 2.03217e-16 0.0 3.88251e-19 -2.35078 -8.19059 0.245978 -0.00624606 9.26113 -0.159994 0.527567 -1.08019 -0.0374389
5.96357 82.48 2.48717 176.067 87.3172 -168.619 -2.36655 -6.30656 -1.04989 -0.328271 -0.393279 -0.29342 -1.59511 2.34618 -0.756494 3.61528 -2.87526 -0.865185 -0.0 0.0 0.0 -0.0 0.0 0.0 2.22506e-14 -1.23893e-12 4.16594e-16 18.2545 13.9348 -8.13412 -18.3099 -15.9037 15.1044 0.0402995 -4.45561 -0.619376 2.84979e-10 -1.45921e-10 3.40846e-10 4.86838e-10 -2.53176e-10 5.91279e-10 2.84984e-10 -1.45919e-10 3.40831e-10 7.73091 5.47488 0.417314 2.84979e-10 -1.45921e-10 3.40844e-10 2.90554 0.965183 0.102902 2.84981e-10 -1.45921e-10 3.40843e-10 10.2786 0.731801 0.0259123 2.84975e-10 -1.45918e-10 3.40845e-10 2.22167 -0.733487 -0.20892 2.20411e-14 -1.23893e-12 2.33339e-16 -21.2842 7.25295 7.1081 17.3917 -14.8883 -15.0086 -0.00017164 -0.292352 0.0410855 3.14394e-10 -6.09254e-10 -8.95054e-10 5.44255e-10 -1.05264e-09 -1.54588e-09 3.1439e-10 -6.09252e-10 -8.9505e-10 -7.73091 5.47488 -0.417314 3.14396e-10 -6.09253e-10 -8.95054e-10 -2.90554 0.965183 -0.102902 3.14386e-10 -6.09252e-10 -8.95051e-10 -10.2786 0.731801 -0.0259123 3.14397e-10 -6.0925e-10 -8.95054e-10 -2.22167 -0.733487 0.20892 -2.03217e-16 0.0 -3.88251e-19 -1.99938 -4.88842 3.06923 0.00340761 1.12269 0.0679752 -1.1227 -0.0325251 -6.63199 2.03217e-16 0.0 3.88251e-19 -1.61779 -9.844 -6.02504 -0.00351273 9.60993 -0.147115 0.790578 -4.19418 6.83401
5.9626 82.4811 2.4775 175.4 87.264 -169.284 -2.51165 -12.9688 -2.13139 0.0371054 -0.819315 -0.479976 -3.21306 4.82491 -1.56005 7.3433 -5.91285 -1.78636 -0.0 0.0 0.0 -0.0 0.0 0.0 3.69938e-14 -2.51597e-12 9.28697e-16 42.285 27.6929 -18.4062 -27.9201 -28.8667 34.6424 -0.0230945 -9.1685 -1.28734 5.16569e-10 -3.04251e-10 7.1465e-10 8.81031e-10 -5.27899e-10 1.23979e-09 5.16573e-10 -3.0425e-10 7.14635e-10 7.73091 5.47488 0.417314 5.1657e-10 -3.04252e-10 7.14648e-10 2.90554 0.965183 0.102902 5.16571e-10 -3.04252e-10 7.14644e-10 10.2786 0.731801 0.0259123 5.16566e-10 -3.04248e-10 7.14644e-10 2.22167 -0.733487 -0.20892 3.67701e-14 -2.51597e-12 6.55368e-16 -45.7718 14.5579 14.999 26.8367 -27.0854 -33.9485 0.000105432 -0.605085 0.0850389 5.71566e-10 -1.27759e-09 -1.87063e-09 9.898e-10 -2.20738e-09 -3.23087e-09 5.71561e-10 -1.27758e-09 -1.87063e-09 -7.73091 5.47488 -0.417314 5.71569e-10 -1.27759e-09 -1.87063e-09 -2.90554 0.965183 -0.102902 5.71556e-10 -1.27758e-09 -1.87063e-09 -10.2786 0.731801 -0.0259123 5.71568e-10 -1.27758e-09 -1.87063e-09 -2.22167 -0.733487 0.20892 -2.03217e-16 0.0 -3.88251e-19 -2.30463 -7.98271 6.33684 -0.000855538 4.50855 0.216963 -2.82653 -4.16807 -13.8132 2.03217e-16 0.0 3.88251e-19 -1.24074 -11.4208 -12.7211 -0.000798827 9.97897 -0.133506 1.87912 -7.32318 14.1781
5.96079 82.4847 2.48339 176.288 87.1818 -168.389 -2.86801 -18.896 -3.16869 0.36193 -1.2016 -0.646007 -4.59831 7.03363 -2.28478 10.5829 -8.61788 -2.62191 -0.0 0.0 0.0 -0.0 0.0 0.0 5.02543e-14 -3.71686e-12 1.44857e-15 68.8676 37.9746 -30.6297 -28.9017 -33.3531 55.5566 -0.174883 -13.3605 -1.90406 6.95411e-10 -4.38604e-10 1.02543e-09 1.18504e-09 -7.60985e-10 1.77884e-09 6.95414e-10 -4.38604e-10 1.02541e-09 7.73091 5.47488 0.417314 6.95412e-10 -4.38605e-10 1.02543e-09 2.90554 0.965183 0.102902 6.95412e-10 -4.38604e-10 1.02542e-09 10.2786 0.731801 0.0259123 6.95407e-10 -4.386e-10 1.02542e-09 2.22167 -0.733487 -0.20892 5.00188e-14 -3.71686e-12 1.09759e-15 -69.411 20.3798 22.6408 28.3656 -31.5633 -53.8601 0.000743035 -0.877053 0.123269 7.83496e-10 -1.82864e-09 -2.68227e-09 1.35697e-09 -3.15943e-09 -4.63265e-09 7.83492e-10 -1.82864e-09 -2.68227e-09 -7.73091 5.47488 -0.417314 7.835e-10 -1.82864e-09 -2.68228e-09 -2.90554 0.965183 -0.102902 7.83486e-10 -1.82864e-09 -2.68227e-09 -10.2786 0.731801 -0.0259123 7.83498e-10 -1.82864e-09 -2.68227e-09 -2.22167 -0.733487 0.20892 -2.03217e-16 0.0 -3.88251e-19 -2.27033 -10.6863 9.32561 -0.0194938 7.52518 0.351785 -5.22248 -7.59679 -20.3531 2.03217e-16 0.0 3.88251e-19 -1.22802 -12.6272 -18.7652 0.00147603 10.3075 -0.121292 3.53036 -9.83792 20.8421
5.95105 82.4843 2.50474 178.548 87.0645 -166.092 -3.25987 -23.0077 -3.95151 0.590616 -1.47457 -0.760611 -5.53404 8.57202 -2.79788 12.7876 -10.4991 -3.21838 -0.0 0.0 0.0 -0.0 0.0 0.0 5.98076e-14 -4.72736e-12 1.98785e-15 90.7762 43.211 -41.5021 -28.122 -31.3967 69.4836 -0.335492 -16.2563 -2.34868 7.4238e-10 -5.13011e-10 1.17864e-09 1.26358e-09 -8.8998e-10 2.04425e-09 7.42383e-10 -5.13011e-10 1.17862e-09 7.73091 5.47488 0.417314 7.42382e-10 -5.13012e-10 1.17864e-09 2.90554 0.965183 0.102902 7.42382e-10 -5.13011e-10 1.17863e-09 10.2786 0.731801 0.0259123 7.42377e-10 -5.13006e-10 1.17863e-09 2.22167 -0.733487 -0.20892 5.95665e-14 -4.72736e-12 1.59028e-15 -86.9093 23.8192 28.3805 27.8997 -30.0452 -67.3209 0.00134491 -1.04711 0.147178 8.82324e-10 -2.08649e-09 -3.08406e-09 1.52821e-09 -3.60474e-09 -5.32639e-09 8.8232e-10 -2.08649e-09 -3.08406e-09 -7.73091 5.47488 -0.417314 8.82328e-10 -2.08649e-09 -3.08407e-09 -2.90554 0.965183 -0.102902 8.82314e-10 -2.08648e-09 -3.08406e-09 -10.2786 0.731801 -0.0259123 8.82325e-10 -2.08649e-09 -3.08407e-09 -2.22167 -0.733487 0.20892 -2.03217e-16 0.0 -3.88251e-19 -2.06298 -12.5208 11.5023 -0.0405858 9.61888 0.447853 -7.38525 -9.7712 -25.062 2.03217e-16 0.0 3.88251e-19 -1.38423 -13.3349 -23.0317 0.00298998 10.5349 -0.112616 5.03556 -11.364 25.5626
